<svg xmlns="http://www.w3.org/2000/svg"  viewBox="0 0 24 24" width="48px" height="48px"><path d="M 11 2.0195312 C 7.345 2.1995313 4.3955937 4.3572813 3.9335938 7.9882812 C 4.6795938 7.4132812 5.7085469 7.0136719 7.1855469 7.0136719 C 9.1075469 7.0136719 10.081 7.2507656 11 8.1347656 L 11 2.0195312 z M 12.001953 2.0195312 L 12.001953 8.1367188 C 12.922953 7.2507188 13.897219 7.0136719 15.824219 7.0136719 C 17.150219 7.0136719 18.211453 7.3381875 19.064453 7.9921875 C 18.603536 4.3598432 15.656039 2.2012128 12.001953 2.0195312 z M 7.1855469 8.0136719 C 5.2735469 8.0136719 4.1458281 8.7139219 3.2988281 10.419922 L 1.0527344 16.068359 C 0.68573438 17.126359 2.2049531 18.735266 3.3769531 19.697266 C 4.3669531 20.510266 5.5963281 21.060719 6.4863281 21.386719 L 5.0605469 18.736328 C 4.9295469 18.493328 5.0206719 18.189594 5.2636719 18.058594 C 5.5096719 17.929594 5.8104062 18.019719 5.9414062 18.261719 L 7.4726562 21.107422 L 11.078125 15.238281 C 11.169125 15.090281 11.329906 15 11.503906 15 C 11.677906 15 11.838688 15.091281 11.929688 15.238281 L 15.529297 21.105469 L 17.056641 18.263672 C 17.186641 18.019672 17.490422 17.929594 17.732422 18.058594 C 17.975422 18.189594 18.0685 18.493328 17.9375 18.736328 L 16.515625 21.384766 C 17.404625 21.058766 18.633094 20.509266 19.621094 19.697266 C 20.793094 18.736266 22.310359 17.126359 21.943359 16.068359 L 19.648438 10.292969 C 18.853437 8.7239688 17.666266 8.0136719 15.822266 8.0136719 C 13.455266 8.0136719 12.936297 8.3739219 11.904297 9.7949219 C 11.896297 9.8049219 11.884953 9.8083594 11.876953 9.8183594 C 11.858953 9.8393594 11.839359 9.8589531 11.818359 9.8769531 C 11.808359 9.8849531 11.804922 9.8972969 11.794922 9.9042969 C 11.788922 9.9082969 11.780438 9.9081094 11.773438 9.9121094 C 11.757437 9.9231094 11.741609 9.9314531 11.724609 9.9394531 C 11.700609 9.9514531 11.675391 9.96075 11.650391 9.96875 C 11.631391 9.97475 11.614703 9.9823281 11.595703 9.9863281 C 11.576703 9.9903281 11.556109 9.9911875 11.537109 9.9921875 C 11.524109 9.9931875 11.514 10 11.5 10 C 11.486 10 11.475891 9.9931875 11.462891 9.9921875 C 11.443891 9.9911875 11.423297 9.9903281 11.404297 9.9863281 C 11.385297 9.9823281 11.368609 9.97475 11.349609 9.96875 C 11.323609 9.96075 11.298391 9.9514531 11.275391 9.9394531 C 11.258391 9.9304531 11.242562 9.9221094 11.226562 9.9121094 C 11.220562 9.9081094 11.212078 9.9082969 11.205078 9.9042969 C 11.195078 9.8962969 11.190641 9.8849531 11.181641 9.8769531 C 11.160641 9.8589531 11.141047 9.8393594 11.123047 9.8183594 C 11.115047 9.8083594 11.102703 9.8049219 11.095703 9.7949219 C 10.065703 8.3739219 9.5455469 8.0136719 7.1855469 8.0136719 z M 8.0117188 10.308594 C 9.1617188 10.308594 9.6982656 11.076969 9.9472656 11.792969 C 10.152266 12.379969 9.7357187 13 9.1367188 13 L 6.8886719 13 C 6.2896719 13 5.8721719 12.379969 6.0761719 11.792969 C 6.3251719 11.076969 6.8617188 10.308594 8.0117188 10.308594 z M 15.011719 10.308594 C 16.161719 10.308594 16.698266 11.076969 16.947266 11.792969 C 17.152266 12.379969 16.735719 13 16.136719 13 L 13.888672 13 C 13.289672 13 12.872172 12.379969 13.076172 11.792969 C 13.325172 11.076969 13.861719 10.308594 15.011719 10.308594 z M 11.503906 16.455078 L 8.1875 21.853516 C 9.6795 22.035516 13.323453 22.037516 14.814453 21.853516 L 11.503906 16.455078 z"/></svg>