<svg xmlns="http://www.w3.org/2000/svg"  viewBox="0 0 48 48" width="48px" height="48px"><path d="M46.157,15.784c-0.873-0.46-1.939-0.363-2.717,0.25l-3.574,2.826c-0.971-3.966-7.01-11.871-11.728-11.871h-8.302	c-4.747,0-10.835,8.006-11.748,11.947l-3.56-2.814c-0.776-0.612-1.841-0.709-2.715-0.25c-0.871,0.458-1.394,1.391-1.33,2.379	c0.28,4.184,1.688,11.298,7.788,13.275c1.452,5.545,7.583,8.157,7.878,8.279l0.103,0.038c0.988,0.328,1.567,0.77,2.237,1.281	c1.161,0.886,2.477,1.891,5.498,1.891c3.021,0,4.336-1.004,5.497-1.891c0.67-0.512,1.249-0.954,2.238-1.282l0.103-0.038	c0.297-0.123,6.491-2.766,7.898-8.375c6.079-1.988,7.484-9.088,7.764-13.271C47.55,17.175,47.027,16.242,46.157,15.784z M7.959,27.62c-0.003,0.166-0.007,0.331-0.011,0.499C4.95,26.321,3.92,22.23,3.579,19.196l4.38,3.462V27.62z M30.746,35.813	c-0.073,0.016-0.146-0.026-0.17-0.097c-0.613-1.813-1.393-3.738-2.583-3.738c-1,0-2-0.003-4-0.003s-3,0.003-4,0.003	c-1.191,0-1.97,1.925-2.583,3.738c-0.024,0.071-0.097,0.112-0.17,0.097c-0.073-0.016-0.123-0.083-0.116-0.158	c0.074-0.785,0.16-1.646,0.259-2.144c0.083-0.412,0.179-0.823,0.283-1.238c0.123-0.487,0.224-2.308,6.327-2.298	c6.103-0.01,6.204,1.811,6.327,2.298c0.104,0.415,0.199,0.826,0.283,1.238c0.1,0.498,0.186,1.359,0.259,2.144	C30.869,35.73,30.819,35.797,30.746,35.813z M22,25.5c0-0.276,0.448-0.5,1-0.5s1,0.224,1,0.5c0,0.276-0.448,0.5-1,0.5	S22,25.777,22,25.5z M24,25.5c0-0.276,0.448-0.5,1-0.5s1,0.224,1,0.5c0,0.276-0.448,0.5-1,0.5S24,25.776,24,25.5z M35.435,22.592	l-0.002,0.001c-0.395,0.297-0.946,0.262-1.3-0.084c-1.723-1.681-4.144-1.681-7.367-1.091c0.107,0.127,0.225,0.246,0.315,0.383	c0.661,0.989,0.917,1.882,0.892,2.919c1.011,0.33,2.268,1.52,3.577,4.319c0.723,1.539,1.18,3.174,1.362,4.823	c0.008,0.074-0.04,0.142-0.112,0.159s-0.146-0.022-0.172-0.091c-0.573-1.53-1.287-2.978-2.14-4.301	c-1.055-1.611-2.381-2.994-3.961-3.878l-0.413-0.232l-0.027-0.545c-0.039-0.797-0.235-1.534-0.611-2.085	c-0.19-0.275-0.431-0.5-0.701-0.661c-0.239-0.15-0.524-0.232-0.72-0.243l-0.109,0.025l-0.053-0.018	c-0.194,0.021-0.456,0.096-0.682,0.237c-0.271,0.161-0.511,0.386-0.701,0.661c-0.377,0.551-0.569,1.289-0.61,2.085l-0.028,0.547	l-0.413,0.231c-1.579,0.884-2.905,2.267-3.96,3.878c-0.853,1.323-1.57,2.773-2.144,4.305c-0.026,0.07-0.1,0.109-0.172,0.092	c-0.072-0.017-0.12-0.086-0.112-0.159c0.18-1.651,0.636-3.29,1.361-4.831c1.311-2.806,3.285-4.061,3.566-4.224	c-0.027-1.037,0.243-2.023,0.904-3.012c0.122-0.185,0.273-0.351,0.424-0.516c-4.351-0.89-6.579,0.424-7.482,1.234	c-0.334,0.299-0.826,0.341-1.204,0.1l-0.034-0.021c-0.254-0.162-0.418-0.433-0.444-0.733c-0.025-0.3,0.091-0.595,0.314-0.797	c1.438-1.303,4.91-3.28,11.571-1.131c4.01-0.899,8.456-1.818,11.483,1.14c0.208,0.204,0.318,0.488,0.299,0.779	C35.812,22.148,35.668,22.417,35.435,22.592z M32,23.5c0,0.828-0.672,1.5-1.5,1.5S29,24.328,29,23.5s0.672-1.5,1.5-1.5	S32,22.672,32,23.5z M16,23.5c0-0.828,0.672-1.5,1.5-1.5s1.5,0.672,1.5,1.5S18.328,25,17.5,25S16,24.328,16,23.5z M40.021,28.031	c-0.002-0.091-0.004-0.181-0.006-0.272v-5.193l4.375-3.458C44.049,22.144,43.02,26.233,40.021,28.031z"/></svg>